#!OML:ASF H:\Pregnant\Project 1\Capture day 1\Session 1\femalepreg.ASF
:FULLY-SPECIFIED
:DEGREES
385
root -2.82764 14.8397 39.5546 -162.622 -1.15007 181.624
lowerback -10.032 5.59882 9.71404
upperback -2.92699 6.18568 -0.602833
thorax 3.62667 2.99974 -5.21257
lowerneck -11.7959 16.5934 18.0279
upperneck 17.6668 22.8989 -16.5521
head 11.8334 10.1552 -5.01019
rclavicle -4.35338e-014 -1.90833e-014
rhumerus -23.5904 12.4626 -88.823
rradius 41.7931
rwrist -13.2087
rhand -24.482 -19.9442
rfingers 7.12502
rthumb 2.01182 -49.9144
lclavicle -4.35338e-014 -1.90833e-014
lhumerus -46.4368 -10.1249 85.4341
lradius 26.0962
lwrist 34.9949
lhand -26.7444 -1.39843
lfingers 7.12502
lthumb -0.173221 28.5812
rfemur -28.7481 18.0748 26.6901
rtibia 40.2391
rfoot -22.4188 -12.6256
rtoes -7.1761
lfemur -51.2397 -4.76837 -20.2521
ltibia 33.3901
lfoot -7.1015 7.98289
ltoes -24.2493
386
root -2.82846 14.8422 39.6 -162.815 -1.31134 181.64
lowerback -10.0624 5.49399 9.60207
upperback -2.80378 6.05646 -0.538049
thorax 3.73408 2.94815 -5.09585
lowerneck -12.1551 16.3962 17.9696
upperneck 17.7605 22.5728 -16.4976
head 11.858 9.98863 -5.03809
rclavicle -2.03754e-014 -3.18055e-015
rhumerus -24.2766 11.383 -88.6554
rradius 40.4848
rwrist -13.9092
rhand -24.5053 -20.6016
rfingers 7.12502
rthumb 1.98933 -50.5721
lclavicle -2.03754e-014 -3.18055e-015
lhumerus -46.5856 -10.0677 85.429
lradius 26.3342
lwrist 35.3705
lhand -26.8385 -2.1366
lfingers 7.12502
lthumb -0.264091 27.843
rfemur -28.7184 18.0918 26.7331
rtibia 40.2507
rfoot -22.2745 -12.7873
rtoes -7.17699
lfemur -51.2232 -4.93592 -19.9737
ltibia 35.1069
lfoot -7.6291 7.62431
ltoes -23.9739
387
root -2.83088 14.8454 39.6439 -162.965 -1.44195 181.689
lowerback -10.137 5.41074 9.51816
upperback -2.68573 5.94614 -0.472636
thorax 3.86686 2.90558 -4.9876
lowerneck -12.5445 16.1976 17.895
upperneck 17.8585 22.2417 -16.4312
head 11.8854 9.8184 -5.05883
rclavicle 4.1049e-014 -2.62396e-014
rhumerus -24.909 10.2783 -88.4264
rradius 39.0608
rwrist -14.6282
rhand -24.4746 -21.3307
rfingers 7.12502
rthumb 2.01898 -51.3009
lclavicle 4.1049e-014 -2.62396e-014
lhumerus -46.716 -10.0305 85.4443
lradius 26.6341
lwrist 35.8333
lhand -26.9461 -2.79712
lfingers 7.12502
lthumb -0.368011 27.1823
rfemur -28.7191 18.1047 26.7853
rtibia 40.2301
rfoot -22.1233 -12.8922
rtoes -7.18071
lfemur -51.2092 -5.09113 -19.6416
ltibia 36.8037
lfoot -8.10936 7.38043
ltoes -23.8501
388
root -2.83485 14.8495 39.6862 -163.073 -1.53862 181.764
lowerback -10.2539 5.35279 9.45903
upperback -2.59353 5.86001 -0.41297
thorax 4.00315 2.87248 -4.89314
lowerneck -12.8954 15.9849 17.8228
upperneck 17.9577 21.8904 -16.349
head 11.9005 9.64366 -5.08183
rclavicle -4.35338e-014 -3.18055e-014
rhumerus -25.5369 9.12738 -88.1451
rradius 37.532
rwrist -15.3251
rhand -24.4202 -22.0572
rfingers 7.12502
rthumb 2.07157 -52.0269
lclavicle -4.35338e-014 -3.18055e-014
lhumerus -46.8662 -10.0238 85.4801
lradius 26.9889
lwrist 36.375
lhand -27.0824 -3.24388
lfingers 7.12502
lthumb -0.499635 26.7353
rfemur -28.75 18.1186 26.8385
rtibia 40.1811
rfoot -21.9635 -12.9533
rtoes -7.21874
lfemur -51.1865 -5.23073 -19.2676
ltibia 38.4627
lfoot -8.5322 7.23886
ltoes -23.8888
389
root -2.84023 14.8545 39.727 -163.145 -1.59921 181.854
lowerback -10.413 5.31181 9.40416
upperback -2.51345 5.78912 -0.348421
thorax 4.15269 2.84556 -4.79085
lowerneck -13.2349 15.7666 17.7266
upperneck 18.0608 21.5335 -16.2491
head 11.9088 9.46743 -5.09721
rclavicle 1.18774e-013 6.36111e-015
rhumerus -26.1336 7.95348 -87.7912
rradius 35.8986
rwrist -15.9717
rhand -24.3456 -22.7453
rfingers 7.12502
rthumb 2.14358 -52.7143
lclavicle 1.18774e-013 6.36111e-015
lhumerus -47.0139 -10.0214 85.5421
lradius 27.3869
lwrist 36.978
lhand -27.2957 -3.42085
lfingers 7.12502
lthumb -0.70566 26.5577
rfemur -28.8092 18.1385 26.8841
rtibia 40.1108
rfoot -21.7974 -12.9722
rtoes -7.26354
lfemur -51.1395 -5.35694 -18.8634
ltibia 40.0669
lfoot -8.9082 7.18365
ltoes -23.9875
390
root -2.84701 14.8602 39.7661 -163.189 -1.63191 181.949
lowerback -10.6016 5.28786 9.35342
upperback -2.45621 5.73606 -0.291755
thorax 4.29872 2.82523 -4.69517
lowerneck -13.5403 15.5379 17.6085
upperneck 18.1714 21.1621 -16.1107
head 11.9031 9.28939 -5.10087
rclavicle -2.67365e-014 4.77083e-015
rhumerus -26.728 6.72835 -87.3731
rradius 34.1728
rwrist -16.522
rhand -24.2856 -23.3915
rfingers 7.12502
rthumb 2.20157 -53.3599
lclavicle -2.67365e-014 4.77083e-015
lhumerus -47.1817 -10.0491 85.6231
lradius 27.822
lwrist 37.6374
lhand -27.522 -3.32972
lfingers 7.12502
lthumb -0.924293 26.648
rfemur -28.8873 18.1574 26.9159
rtibia 40.0258
rfoot -21.6335 -12.9639
rtoes -7.33581
lfemur -51.0516 -5.48027 -18.4425
ltibia 41.5995
lfoot -9.2545 7.19584
ltoes -24.1122
391
root -2.85479 14.8664 39.8033 -163.216 -1.64958 182.036
lowerback -10.8079 5.26375 9.28376
upperback -2.40838 5.68191 -0.230008
thorax 4.44229 2.80287 -4.58328
lowerneck -13.8485 15.3108 17.4355
upperneck 18.2978 20.7962 -15.9293
head 11.8932 9.11389 -5.07936
rclavicle 1.50082e-014 -9.54166e-015
rhumerus -27.3047 5.47004 -86.8708
rradius 32.3742
rwrist -16.9365
rhand -24.2408 -24.0541
rfingers 7.12502
rthumb 2.24476 -54.0221
lclavicle 1.50082e-014 -9.54166e-015
lhumerus -47.3429 -10.0603 85.718
lradius 28.2703
lwrist 38.3162
lhand -27.6977 -3.32185
lfingers 7.12502
lthumb -1.09393 26.6551
rfemur -28.9718 18.1726 26.9298
rtibia 39.9333
rfoot -21.4747 -12.9358
rtoes -7.40181
lfemur -50.9027 -5.61445 -18.0178
ltibia 43.047
lfoot -9.59643 7.25235
ltoes -24.1082
392
root -2.86349 14.8731 39.8387 -163.241 -1.65935 182.108
lowerback -11.0258 5.228 9.18357
upperback -2.35291 5.61426 -0.158948
thorax 4.59485 2.7739 -4.4462
lowerneck -14.1918 15.0975 17.2133
upperneck 18.4378 20.4521 -15.7184
head 11.8906 8.94553 -5.03239
rclavicle -6.7885e-014 -2.8625e-014
rhumerus -27.8362 4.18921 -86.2792
rradius 30.5282
rwrist -17.2011
rhand -24.2616 -24.6706
rfingers 7.12502
rthumb 2.22473 -54.6388
lclavicle -6.7885e-014 -2.8625e-014
lhumerus -47.474 -10.0415 85.8215
lradius 28.729
lwrist 38.9901
lhand -27.8522 -3.18239
lfingers 7.12502
lthumb -1.24313 26.7937
rfemur -29.0502 18.1803 26.9267
rtibia 39.8379
rfoot -21.3258 -12.8975
rtoes -7.46656
lfemur -50.6786 -5.76675 -17.5978
ltibia 44.3996
lfoot -9.93905 7.33565
ltoes -23.9162
393
root -2.87289 14.8799 39.872 -163.265 -1.66857 182.165
lowerback -11.2537 5.19215 9.06499
upperback -2.2878 5.54835 -0.0882232
thorax 4.76214 2.74645 -4.29815
lowerneck -14.5807 14.8837 16.9262
upperneck 18.5954 20.11 -15.4676
head 11.8925 8.77496 -4.95814
rclavicle -6.80837e-014 7.95139e-016
rhumerus -28.3312 2.83305 -85.5844
rradius 28.65
rwrist -17.2347
rhand -24.3592 -25.3594
rfingers 7.12502
rthumb 2.13041 -55.3285
lclavicle -6.80837e-014 7.95139e-016
lhumerus -47.5677 -10.0404 85.9485
lradius 29.1955
lwrist 39.6294
lhand -27.9974 -2.88193
lfingers 7.12502
lthumb -1.38341 27.0933
rfemur -29.1191 18.1804 26.9078
rtibia 39.7442
rfoot -21.1864 -12.8607
rtoes -7.5466
lfemur -50.377 -5.94176 -17.1874
ltibia 45.6528
lfoot -10.2761 7.43055
ltoes -23.5527
